/* XPM */
static char *b8b63e768f9c4c06dc68ccef0aa99c400u9OGMfz6zoOXF7n[] = {
/* columns rows colors chars-per-pixel */
"64 64 256 2 ",
"   c black",
".  c #070303",
"X  c #1A0D0E",
"o  c #6D4337",
"O  c #FFFF3E",
"+  c #4F2B2B",
"@  c #32191C",
"#  c #0C0606",
"$  c #8D663B",
"%  c #B1933C",
"&  c #FBD7B9",
"*  c #835539",
"=  c #040102",
"-  c #D5C33D",
";  c #69363B",
":  c #F0E740",
">  c #FFD7BF",
",  c #75453D",
"<  c #1E1010",
"1  c #70403B",
"2  c #FDDAAB",
"3  c #FFF33F",
"4  c #FDDFA0",
"5  c #331C1C",
"6  c #130A0A",
"7  c #251413",
"8  c #BDA53C",
"9  c #E0D33E",
"0  c #FFDBBE",
"q  c #FFF83F",
"w  c #FDDEA6",
"e  c #9B793B",
"r  c #B5973E",
"t  c #F6D3B4",
"y  c #FDE393",
"u  c #FFF652",
"i  c #FFDC42",
"p  c #EFE440",
"a  c #E8CFAF",
"s  c #F9F342",
"d  c #FFF84B",
"f  c #D9C740",
"g  c #FFFF49",
"h  c #59332F",
"j  c #FCD9B4",
"k  c #37201B",
"l  c #FFEB3F",
"z  c #FEE981",
"x  c #BBE45B",
"c  c #FDEC75",
"v  c #FFFD3F",
"b  c #70BA42",
"n  c #3C221F",
"m  c #FFD955",
"M  c #8D5E3B",
"N  c #4C3027",
"B  c #EFD4A9",
"V  c #8B623B",
"C  c #FFFB42",
"Z  c #FFEC8A",
"A  c #FAD846",
"S  c #FDDA90",
"D  c #58AD40",
"F  c #429A40",
"G  c #53A83F",
"H  c #7CBF46",
"J  c #FCE348",
"K  c #52A140",
"L  c #663F35",
"P  c #EFDA48",
"I  c #6C512A",
"U  c #D4AA92",
"Y  c #E3968D",
"T  c #8A5D54",
"R  c #FFF76E",
"E  c #F0C53D",
"W  c #9BD154",
"Q  c #D7F263",
"!  c #C6B644",
"~  c #A88840",
"^  c #DCFA67",
"/  c #FFFA48",
"(  c #FEF358",
")  c #87C946",
"_  c #FFF789",
"`  c #FFFC50",
"'  c #FFF468",
"]  c #A3D850",
"[  c #67B341",
"{  c #90683D",
"}  c #B28142",
"|  c #FFFE82",
" . c #3C8D43",
".. c #7BA53E",
"X. c #84B141",
"o. c #965C56",
"O. c #C6C29D",
"+. c #8C554F",
"@. c #FFF261",
"#. c #FDE487",
"$. c #FFF4AF",
"%. c #D3A540",
"&. c #C9EC5F",
"*. c #E4D840",
"=. c #F1EC40",
"-. c #B9BC94",
";. c #7C4A41",
":. c #DBE95B",
">. c #A46261",
",. c #9C9251",
"<. c #7E5042",
"1. c #FFFD6E",
"2. c #FEF59A",
"3. c #FFF95D",
"4. c #F8EE4D",
"5. c #879A41",
"6. c #6D493B",
"7. c #D4C13F",
"8. c #492726",
"9. c #FFD871",
"0. c #D5C6A8",
"q. c #FFFF62",
"w. c #61AA42",
"e. c #4F3623",
"r. c #CDCE77",
"t. c #876F35",
"y. c #E9E653",
"u. c #F5D7AE",
"i. c #B8D268",
"p. c #EEA596",
"a. c #816740",
"s. c #804E40",
"d. c #FFEF69",
"f. c #FDF179",
"g. c #C3C141",
"h. c #DBD394",
"j. c #EEC3A5",
"k. c #95AC83",
"l. c #AB6964",
"z. c #CB817B",
"x. c #5A985D",
"c. c #6B303A",
"v. c #FFE862",
"b. c #EFB6A0",
"n. c #F2CC71",
"m. c #C1AB3D",
"M. c #E8CF4E",
"N. c #DCDF3E",
"B. c #53683F",
"V. c #E2C38A",
"C. c #407D3E",
"Z. c #56923E",
"A. c #C99E8B",
"S. c #F7B9A5",
"D. c #657840",
"F. c #6EAF51",
"G. c #8B6559",
"H. c #EFC9AB",
"J. c #D2B042",
"K. c #F1D141",
"L. c #EFCD94",
"P. c #A17E3C",
"I. c #AC7C71",
"U. c #E1EF5D",
"Y. c #AB8274",
"T. c #FCDF74",
"R. c #8E7238",
"E. c #E3DB57",
"W. c #EDAB94",
"Q. c #DAC755",
"!. c #F3CC3F",
"~. c #E5F560",
"^. c #B7786D",
"/. c #D0D240",
"(. c #B9BF56",
"). c #5F563C",
"_. c #32300D",
"`. c #6C6A1B",
"'. c #FFF9A2",
"]. c #FFFF5A",
"[. c #E7B991",
"{. c #F0E45C",
"}. c #A6BC41",
"|. c #A8913A",
" X c #479545",
".X c #FCC3B0",
"XX c #542D2E",
"oX c #978736",
"OX c #BD8678",
"+X c #A79A37",
"@X c #D2DE58",
"#X c #93AD3D",
"$X c #529B3E",
"%X c #FFCEBA",
"&X c #D28420",
"*X c #EC9E21",
"=X c #CB797C",
"-X c #884D4E",
";X c #C5A352",
":X c #DDA091",
">X c #F6F741",
",X c #88AA78",
"<X c #CCE461",
"1X c #FBC79C",
"2X c #FEEDAB",
"3X c #FCE3B4",
"4X c #639D40",
"5X c #C1D044",
"6X c #AFB02A",
"7X c #AFCA48",
"8X c #B78E42",
"9X c #726E46",
"0X c #B1B73F",
"qX c #D4BB3F",
"wX c #A37B5E",
"eX c #AE6F6A",
"rX c #96B972",
"tX c #78593F",
"yX c #F6B126",
"uX c #CECF8E",
"iX c #E0B33C",
"pX c #AAC874",
"aX c #986D41",
"sX c #9DA23D",
"dX c #D68F85",
"fX c #8AC257",
"gX c #6C9D6A",
"hX c #D0B276",
"jX c #B06723",
"kX c #5C8440",
"lX c #7AA370",
"zX c #A5B28E",
"xX c #EFB592",
"cX c #CD8D85",
"vX c #E9DF4D",
"bX c #E2BE44",
"nX c #79873F",
"mX c #9CCA56",
"MX c #E7E738",
"NX c #ACAA2B",
"BX c #E2B461",
"VX c #BADA41",
"CX c #FED09A",
"ZX c #D5966E",
"AX c #73AE40",
"SX c #BB9671",
"DX c #E4CE9B",
"FX c #EDC93E",
"GX c #ECAB7F",
"HX c #F2BA2E",
"JX c #CA9730",
"KX c #AA7531",
"LX c #AD6D29",
"PX c #CAB662",
"IX c #A26F4B",
"UX c #A8866F",
/* pixels */
"                                                                                                                                ",
"                                                                                                                                ",
"                              . < n XX; ; ; ; ; ; ; ; ; ; ; ; ; ; ; ; ; ; ; ; ; ; ; ; ; ; XXn < .                               ",
"                              6 7 8.h 1 , , 1 1 1 1 1 1 1 1 1 1 1 1 1 1 1 1 1 1 1 1 , , 1 h 8.7 6                               ",
"                          = # < k e.6.* * * * * * * * * * * * * * * * * * * * * * * * * * 6.e.k < # =                           ",
"                      = . # < 5 e.I $ e P.P.e e e e e e e e e e e e e e e e e e e e P.P.e $ I e.5 < # . =                       ",
"                      . # < 5 N I t.|.8 m.m.8 8 8 8 8 8 8 8 8 8 8 8 8 8 8 8 8 8 8 8 m.m.8 |.t.I N 5 < # .                       ",
"                      # < @ + o t.% ! 9 *.*.9 9 9 9 9 9 9 9 9 9 9 9 9 9 9 9 9 9 9 *.*.*.9 ! % t.o + @ < #                       ",
"                    # < 5 N o V ~ ! *.4.d d s s s s s s s s s s s s s s s s s s s s d d 4.*.! ~ V o N 5 < #                     ",
"              = . 6 < k e.I $ ~ ;XQ.{.3.q.q.q.q.].g g O O O O O O O O O O g ` 3.3.3.q.q.3.{.Q.;X~ $ I e.k < 6 . =               ",
"            = # 6 7 k e.I R.|.m.Q.E.f.| | | | | 1.q.g O O O O O O O O O g ` 3.' f.f._ | | f.E.Q.m.|.R.I e.k 7 6 # =             ",
"            . 6 7 k N I R.r ! M.{.c 2.'.'.'.'.'._ 1.].g O O O O O O O O g u d.z y y 2X2.2.2.z {.M.! r R.I N k 7 6 .             ",
"            . X @ 8.L M ~ ! *.4.' _ 2.$.$.$.$.$.2._ 3./ C C C C C v v v d @.z y w 3X3X2X$.2._ ' 4.*.! ~ M L 8.@ X .             ",
"            . X @ + o { % - : ` q.| 2.$.$.$.$.2.2._ R ( u u u u u d C C d @.z 4 j 0 3X2X$.2.| q.` : - % { o + @ X .             ",
"            . X 5 XX, { r f =.g ].1._ _ _ 2._ _ _ f.f.c c c c c d.( d C / @.z 4 j j 3X2X_ | 1.].g =.f r { , XX5 X .             ",
"            . X @ + o { r - =.g g ].1.R R R R R R f.z #.y y y y #.c ( d / @.z 4 j 2 y Z R q.].g g =.- r { o + @ X .             ",
"            . X @ + o $ % 7.: C g g ` ` ` ` ` 3.' c y 4 2 j 2 2 4 z d.u u @.z 4 2 w y f.3.` g g C : 7.% $ o + @ X .             ",
"            . X @ + o $ % 7.: v O O v C C / d u d.z 4 j & & & & 2 y c @.( d.#.4 2 w #.c ( d g O C : 7.% $ o + @ X .             ",
"            . X @ + o $ % 7.: v O O O C / u ( d.z y w j > > > & j 4 #.c c z y w j w y z d.@.` g / : 7.% $ o + @ X .             ",
"            . X @ + o $ % 7.: v O O O C u @.c #.y 4 2 0 > > > & & 2 4 y #.y 4 2 j j w y #.c ' ` d : 7.% $ o + @ X .             ",
"            . X @ + o $ % 7.: v O O v / ( c #.4 2 j j & & & & t & u.2 w w 2 2 j & j j 2 4 y f.3.d : 7.% $ o + @ X .             ",
"            . X @ + o $ % qXp q O O v d @.z 4 2 t t a a a a t t & & & & & t B a a a t t u.4 Z R u : - % $ o + @ X .             ",
"            . X @ + o $ 8XqXP 3 v O v d @.z 4 t a 0.O.O.O.0.a t & & > & t a 0.O.O.O.0.a t w Z R u : - % $ o + @ X .             ",
"            . X @ + o V ~ J.K.l q C C d @.z 4 t 0.-.zXk.k.zXO.a & 0 > > t 0.-.k.k.k.-.0.a w Z R u : - % $ o + @ X .             ",
"            . X 5 + o M } J.!.J l q q d ' Z 4 B 0.zXlXx.gX,X-.a & 0 0 & a O.k.gXx.gXk.O.a w Z R u : - % $ o + @ X .             ",
"            . X 5 + o M } %.E i l 3 q d ' Z 4 B O.k.x. .x.lX-.a & 0 0 & a -.,Xx. .x.,X-.a w Z R u : - % $ o + @ X .             ",
"            . X 5 + o M } %.E i l 3 q d ' Z 4 B O.k.gX Xx.lX-.a & 0 0 & a -.,Xx. Xx.,X-.a w Z R u : - % $ o + @ X .             ",
"            . X 5 + o M } %.E i l 3 q d ' Z 4 u.0.rXF.w.F.rX-.a & > > & B O.rXF.w.F.rXO.B w Z R u : - % $ o + @ X .             ",
"            . X 5 + o M } %.E i l 3 q d ' Z 4 u.h.pXfXH fXpXuXB & > > & B uXpXfXH fXpXuXB w Z R u : - % $ o + @ X .             ",
"            . X 5 + o M } %.E i l 3 q d @.z 4 u.h.r.i.W W i.h.B & > > & B h.i.W W W i.h.B w Z R u : - % $ o + @ X .             ",
"            . X 5 + o M } %.E i l 3 q d d.#.S B DXuXi.i.i.r.h.B & > > & u.h.r.i.i.i.r.DXB 2 #.' u : - % $ o + @ X .             ",
"            . X 5 + o M } %.E i l 3 q d d.T.CX1Xj.V.r.r.r.h.B u.0 0 0 0 j B h.r.r.r.V.j.1XCX#.d.u p - % $ o + @ X .             ",
"            . X 5 + o M } %.E i l 3 q d v.9.1XS.b.xX[.V.V.L.B & 0 0 0 0 j B L.V.V.[.[.b.S.1X9.v.( p - % $ o + @ X .             ",
"            . X 5 + o M } %.E i l 3 q 3 v.n.xXW.p.p.p.W.xXb.H.t & & & & t H.j.xXW.W.p.p.W.xXn.v.4.p - % $ o + @ X .             ",
"            . X 5 + o M } %.FXi l 3 3 4.m n.GXY Y Y Y Y :XW.b.j.H.H.H.H.j.b.W.p.Y Y Y Y Y GXn.m 4.p - r $ o + @ X .             ",
"            . X @ + o M ~ J.K.J l 3 l J M.BXZXz.=X=X=Xz.z.cXA.A.U U U U A.A.cXcXz.=X=X=Xz.ZXBXP 4.p - r $ o + @ X .             ",
"            . X @ + o V 8XJ.P l 3 3 l A bX;X} l.>.>.>.>.l.eXI.I.Y.Y.Y.Y.I.I.eXl.l.>.>.>.l.^.;XM.: p f r { o + @ X .             ",
"            . X @ + o $ % qXp 3 q 3 J K.iX8XIX+.-X-X-X+.+.+.T T T T T T T T +.+.+.-X-X-X+.IXr f p p f r { o + @ X .             ",
"            . X @ + o $ % 7.p 3 q l i !.J.8XaX* <.;.<.<.<.<.s.s.s.s.s.s.s.s.<.<.<.s.;.;.* aXr f p p f r { o + @ X .             ",
"            . X @ + o $ % 7.: q q l i !.iXr P.R.a.a.a.a.$ V M * * * * * * M V $ a.a.V V { P.8 f : p - r $ o + @ X .             ",
"            = 6 @ 8.L V % - : q q l i !.bXJ.8 ,.,.,.,.,.~ P.KXLXjXjXjXjXLXKXP.~ ,.,.~ ~ ~ JXqX*.=.p - % V L 8.@ 6 =             ",
"            = 6 @ 8.L V % 7.: q q l i K.M.Q.g.(.(.(.(.(.! 8 JX&X&X&X&X&X&XJX8 ! (.(.! J.J.bXK.: s : - % V L 8.@ 6 =             ",
"            # < 5 XX, { r - p 3 3 l i A P E.@X<X<X<X<X<X@Xf iX*X*X*X*X*X*XiX- /.@X@XE.M.!.K.J l 3 p - r { , XX5 < #             ",
"      = . # < 5 N o T wX;XQ.{.( 4.J i A P y.U.Q Q ^ ^ Q :.E.FXHXyXyXyXyXHXE *.:.U.U.y.J i i J 4.( {.Q.;XwXT o N 5 < # . =       ",
"    . # 6 7 k N 6.G.wXSXhXn.T.v.v.J A A J y.~.^ ^ ^ ^ ^ U.y.P K.!.E E E !.P y.U.~.~.4.J i i J v.v.T.n.hXSXwXG.6.N k 7 6 # .     ",
"    . 6 7 k N 6.G.Y.A.U V.L.S #.T.m m A J y.~.^ ^ ^ ^ ^ Q U.y.vXvXP P P vXy.U.~.~.~.U.J i m m T.#.S L.V.U A.Y.G.6.N k 7 6 .     ",
"    # X @ 8.L T I.A.[.H.t u.2 S S 9.m A P y.:.Q Q Q Q Q Q Q :.:.:.:.:.:.:.:.Q Q Q :.y.P A m 9.S S 2 u.t H.[.A.I.T L 8.@ X #     ",
"    # < k h , G.OXU j.t > > & 2 S 9.m A P E.@Xx x &.&.&.&.&.x x x x &.&.&.&.&.x x @XE.P A m 9.S 2 & > > t j.U OXG., h k < #     ",
"    # < n h ;.>.OXU .X%X> > > 2 S 9.m A 9 5X7XmXW ] x x x x ] W W ] x x &.x ] W mX7X5X9 A m 9.S 2 > > > %X.XU OX>.;.h n < #     ",
"    # < n h ;.>.OX:XS..X%X> > 2 S T.m A f }.X.F.b ) ] x ] W H F.F.H W ] x ] ) b F.X.}.f A m T.S 2 > > %X.XS.:XOX>.;.h n < #     ",
"    # < k h , o.^.dXp.S..X%Xt 2 S 9.m K.g.#X4X XK [ ) ] W H w.F F w.H W ] ) [ K  X4X#Xg.K.m 9.S 2 t %X.XS.p.dX^.o., h k < #     ",
"    # < 5 + 1 +.l.z.Y p.b.S.j.L.L.n.M.f 0X..Z. .F D H ) ) [ K  . .K [ ) ) H D F  .Z...0Xf M.n.L.L.j.S.b.p.Y z.l.+.1 + 5 < #     ",
"    . 6 7 n h , o.eXz.dXY :XU U hXPX! 0X#X..$XF F G [ b b D K F F K D b b [ G F F $X..#X0X! PXhXU U :XY dXz.eXo., h n 7 6 .     ",
"    . # X 7 n h , o.l.^.^.I.Y.UX,.,.5.....w.w.D D D D G G G G G G G G G G D D D D w.w.....5.,.,.UXY.I.^.^.l.o., h n 7 X # .     ",
"    = . # 6 7 n h , +.o.o.o.T G.9XD.kXZ.K [ b H b D K F F G [ b b [ G F F K D b H b [ K Z.kXD.9XG.T o.o.o.+., h n 7 6 # . =     ",
"          = # 7 n h 1 , ;.s.<.tXB.B.C. .$X[ H ) b w. X . .K b ) ) b K  . . Xw.b ) H [ $X .C.B.B.tX<.s.;., 1 h n 7 # =           ",
"            = 6 7 n N L 6.* V t.D.kXZ.$XK AXX.X...Z.C.C.C.4XH ] ] H 4XC.C.C.Z...X.X.AXK $XZ.kXD.t.V * 6.L N n 7 6 =             ",
"              . 6 7 k e.I t.oX+XsX#XX.X.X...5.5.nXD.B.B.D.5.}.VXVX}.5.D.B.B.D.nX5.5...X.X.X.#XsX+XoXt.I e.k 7 6 .               ",
"              = . 6 7 N I oXm.- /./.5X7X}.sXoXt.a.).).).9X5.g.N.N.g.5.9X).).).a.t.oXsX}.7X5X/./.- m.oXI N 7 6 . =               ",
"                  = 6 _.`.+X/.: >X>X=.N.g.+XR.tX6.L L 6.a.|.g.N.N.g.|.a.6.L L 6.tXR.+Xg.N.=.>X>X: /.+X`._.6 =                   ",
"                    # _.`.NXN.v O O O =.- r { ;.; ; ; , V % 7.p p 7.% V , ; ; ; ;.{ r - =.O O O v N.NX`._.#                     ",
"                    . _.`.6XMXO O O O 3 f r $ , c.c.c., V % - p p - % V , c.c.c., $ r f 3 O O O O MX6X`._..                     ",
"                                                                                                                                ",
"                                                                                                                                "
};
