/* XPM */
static char *result[] = {
/* columns rows colors chars-per-pixel */
"64 64 236 2 ",
"   c #191B2F",
".  c #191E2E",
"X  c #1D1D2F",
"o  c #1C1831",
"O  c #1D1831",
"+  c #1D1931",
"@  c #1F1D30",
"#  c #211931",
"$  c #201B30",
"%  c #201C30",
"&  c #211C31",
"*  c #221E30",
"=  c #231E30",
"-  c #271D31",
";  c #301E33",
":  c #3E1D37",
">  c #1F202F",
",  c #17322C",
"<  c #21202F",
"1  c #23232F",
"2  c #22272E",
"3  c #24252E",
"4  c #24242F",
"5  c #222F2A",
"6  c #222F2B",
"7  c #21282D",
"8  c #27282E",
"9  c #252D2C",
"0  c #2D282F",
"q  c #233927",
"w  c #203C26",
"e  c #293E27",
"r  c #22302A",
"t  c #223628",
"y  c #26352A",
"u  c #2D332D",
"i  c #2F372C",
"p  c #203828",
"a  c #343D2B",
"s  c #353F2B",
"d  c #242130",
"f  c #2A2131",
"g  c #282530",
"h  c #312232",
"j  c #352332",
"k  c #362334",
"l  c #3A2433",
"z  c #3E2234",
"x  c #3F2234",
"c  c #491F38",
"v  c #541C3D",
"b  c #522A36",
"n  c #57203A",
"m  c #5E2838",
"M  c #6F2034",
"N  c #60233A",
"B  c #65273A",
"V  c #6C263A",
"C  c #682B3A",
"Z  c #6B2F3A",
"A  c #76243C",
"S  c #742F3B",
"D  c #7B2D3C",
"F  c #7D343C",
"G  c #22501F",
"H  c #23511F",
"J  c #23561E",
"K  c #235E1B",
"L  c #285C1D",
"P  c #1A6D1E",
"I  c #246917",
"U  c #22601A",
"Y  c #246419",
"T  c #35651E",
"R  c #2D7217",
"E  c #277F11",
"W  c #297A13",
"Q  c #23741B",
"!  c #3B7B18",
"~  c #105127",
"^  c #234623",
"/  c #224124",
"(  c #214224",
")  c #274B22",
"_  c #314627",
"`  c #354629",
"'  c #3D4C29",
"]  c #2D5720",
"[  c #3B5327",
"{  c #3D5526",
"}  c #3F4733",
"|  c #1A6C27",
" . c #166A28",
".. c #247125",
"X. c #227821",
"o. c #247D25",
"O. c #2A7B3D",
"+. c #445826",
"@. c #405029",
"#. c #435428",
"$. c #455828",
"%. c #486026",
"&. c #4A6425",
"*. c #4F6A25",
"=. c #51672A",
"-. c #527322",
";. c #557026",
":. c #5B7F22",
">. c #5A7628",
",. c #611B40",
"<. c #6C1E40",
"1. c #761C44",
"2. c #2D4044",
"3. c #2E7A4B",
"4. c #3E6B59",
"5. c #4C545D",
"6. c #5D5F6B",
"7. c #507768",
"8. c #60606E",
"9. c #86293E",
"0. c #891D47",
"q. c #962147",
"w. c #9A2942",
"e. c #933340",
"r. c #A52B43",
"t. c #AB2E44",
"y. c #A4214B",
"u. c #AC214C",
"i. c #B52C44",
"p. c #B72D45",
"a. c #B2244B",
"s. c #BB284A",
"d. c #A93D42",
"f. c #B03344",
"g. c #B63A44",
"h. c #C32A4A",
"j. c #C92C49",
"k. c #C1314A",
"l. c #C73049",
"z. c #CD3048",
"x. c #D13149",
"c. c #D43B49",
"v. c #E23C4A",
"b. c #BA4044",
"n. c #C24245",
"m. c #CA4346",
"M. c #D9424A",
"N. c #E5454A",
"B. c #E9474B",
"V. c #288D0C",
"C. c #288212",
"Z. c #2C8610",
"A. c #2D8015",
"S. c #358215",
"D. c #328A10",
"F. c #398D12",
"G. c #3E8E13",
"H. c #3D9012",
"J. c #428917",
"K. c #49861C",
"L. c #49881B",
"P. c #4E8D1A",
"I. c #409312",
"U. c #469513",
"Y. c #439014",
"T. c #499215",
"R. c #4B9714",
"E. c #4E9416",
"W. c #539517",
"Q. c #589917",
"!. c #5B931C",
"~. c #5D9919",
"^. c #5D9C18",
"/. c #69931F",
"(. c #6B951E",
"). c #6C971F",
"_. c #639C19",
"`. c #679E1A",
"'. c #669A1D",
"]. c #6C9F1B",
"[. c #6E9A1E",
"{. c #699C1D",
"}. c #6C9E1D",
"|. c #68A01A",
" X c #6BA21A",
".X c #70A01C",
"XX c #72A11D",
"oX c #73A11D",
"OX c #71A21C",
"+X c #74A21D",
"@X c #74A31D",
"#X c #75A51D",
"$X c #76A61D",
"%X c #78A81C",
"&X c #438522",
"*X c #468722",
"=X c #5F8221",
"-X c #608820",
";X c #648A20",
":X c #658D20",
">X c #688430",
",X c #768F3B",
"<X c #7BA923",
"1X c #7DA52C",
"2X c #368745",
"3X c #408D50",
"4X c #458F54",
"5X c #46875C",
"6X c #4C8B62",
"7X c #5A946F",
"8X c #619875",
"9X c #69A57B",
"0X c #6DA77F",
"qX c #80AE26",
"wX c #80AC29",
"eX c #86B32C",
"rX c #8BB72E",
"tX c #8FB835",
"yX c #94BF36",
"uX c #99C339",
"iX c #9EC73D",
"pX c #A2CB40",
"aX c #A4CC42",
"sX c #A5CD42",
"dX c #A6CF43",
"fX c #A9D343",
"gX c #77AD89",
"hX c #899C99",
"jX c #9AA6A6",
"kX c #94BDA7",
"lX c #A5C4B1",
"zX c #B5CEBF",
"xX c #C0BFC7",
"cX c #DEE8E2",
"vX c #E5ECE8",
"bX c None",
/* pixels */
"bXbXbXbXbXbXbXbXbXbXbXbXbXbXbXbXbXbXbXbXbXbXbXbXbXbXbXbXbXbXbXbXbXbXbXbXbXbXbXbXbXbXbXbXbXbXbXbXbXbXbXbXbXbXbXbXbXbXbXbXbXbXbXbX",
"bXbXbXbXbXbXbXbXbXbXbXbXbXbXbXbXbXbXbXbXbXbXbXbXbXbXbXbXbXbXbXbXbXbXbXbXbXbXbXbXbXbXbXbXbXbXbXbXbXbXbXbXbXbXbXbXbXbXbXbXbXbXbXbX",
"bXbXbXbXbXbXbXbXbXbXbXbXbXbXbXbXbXbXbXbXbXbXbXbXbXbXbXbXbXbXbXbXbXbXbXbXbXbXbXbXbXbXbXbXbXbXbXbXbXbXbXbXbXbXbXbXbXbXbXbXbXbXbXbX",
"bXbXbXbXbXbXbXbXbXbXbXbXbXbXbXbXbXbXbXbXbXbXbXbXbXbXbXbXbXbXbXbXbXbXbXbXbXbXbXbXbXbXbXbXbXbXbXbXbXbXbXbXbXbXbXbXbXbXbXbXbXbXbXbX",
"bXbXbXbXbXbXbXbXbXbXbXbXbXbXbXbXbXbXbXbXbXbXbXbXbXbXbXbXbXbXbXbXbXbXbXbXbXbXbXbXbXbXbXbXbXbXbXbXbXbXbXbXbXbXbXbXbXbXbXbXbXbXbXbX",
"bXbXbX* . . o . . > bXbXbXbXbXbXbXbXbXo # o o o o o o o o o # O > bXbXbXbXbXbXbXbXbXo # O o o o # O > bXbXbXbXbXbXbXbXbXbXbXbXbX",
"bXbXbXl h h h h h g bXbXbXbXbXbXbXbX2 8 0 8 8 8 8 8 8 8 8 8 0 8 g bXbXbXbXbXbXbXbX2 8 0 8 8 8 8 0 8 1 bXbXbXbXbXbXbXbXbXbXbXbXbX",
"bXbXb Z S S S S S Z b bXbXbXbXbXbXa @.$.$.$.$.$.$.$.$.$.$.$.$.$.+.y bXbXbXbXbXbXa @.$.$.$.$.$.$.$.$.@.a bXbXbXbXbXbXbXbXbXbXbXbX",
"X l Z d.n.n.n.n.n.d.Z g bXbXbXbX1 _ ;.;X:X;X;X;X;X;X;X;X;X;X:X;X>.' g > bXbXbX1 _ ;.;X:X;X;X;X;X:X;X>.' g > bXbXbXbXbXbXbXbXbXbX",
"  k S m.B.B.N.B.N.b.S c # bXbX& 4 s *.-X:X-X-X-X-X-X-X-X-X-X;X;X-.` 3 # bXbX+ 4 s *.-X:X-X-X-X-X;X-X;.` 4 + bXbXbXbXbXbXbXbXbXbX",
"  k S k.v.v.v.v.v.k.w.1.v # . X < r ` [ { [ [ [ [ [ { { [ [ { { ' u < @ # . X < r ` [ { { { [ [ { [ ` r d + bXbXbXbXbXbXbXbXbXbX",
"- - V t.l.l.l.l.z.h.u.0.<.- - d f f 0 0 0 0 0 0 0 0 0 0 0 0 0 0 0 f f d - - d f f 0 0 0 0 0 0 0 0 0 0 f 4 & bXbXbXbXbXbXbXbXbXbX",
"* & m D 9.9.9.w.a.a.q.1.,.n n n B B C C C C C C C B N N B C B N N N N N N N N N B C C B N N B C C C C S Z m > bXbXbXbXbXbXbXbXbX",
"bXbXj z x x c A q.q.<.c n 1.0.q.r.f.g.b.b.b.b.b.b.f.t.t.g.g.g.t.r.r.r.r.r.r.r.r.f.g.g.f.t.t.g.b.b.b.b.n.b.D l & bXbXbXbXbXbXbXbX",
"bXbXj z k ; : n 1.1.c f : <.0.y.t.k.c.M.M.M.M.M.M.c.x.x.c.M.c.x.z.z.z.z.z.z.z.z.x.c.M.c.x.x.c.M.M.M.M.m.b.F x X bXbXbXbXbXbXbXbX",
"> * m D A <.,.,.n c ; < ; c n N V 9.t.k.k.k.k.k.k.l.x.z.l.k.l.z.x.x.x.x.x.x.x.x.z.l.k.l.x.z.l.k.k.k.f.e.S n k @ bXbXbXbXbXbXbXbX",
"= = D t.p.y.0.,.: f < f f ; ; ; k n 0.y.u.y.y.y.u.s.l.h.a.u.a.h.z.z.z.z.z.z.z.z.h.a.u.s.l.h.a.y.y.y.0.N x f < X bXbXbXbXbXbXbXbX",
"  k S k.x.j.y.<.; < ; c c c c c n A q.u.u.u.u.u.a.s.j.j.s.a.s.j.x.x.x.x.x.x.x.z.h.a.a.s.j.j.s.u.u.u.q.A n x f X bXbXbXbXbXbXbXbX",
"  k S n.v.x.i.A x ; n 1.0.1.0.q.w.t.s.h.h.h.h.h.h.j.z.z.j.h.j.z.x.x.x.x.x.x.x.x.z.j.h.j.z.z.j.h.h.h.s.i.w.V k X bXbXbXbXbXbXbXbX",
"  k F m.N.v.k.9.x ; ,.0.0.0.q.y.i.p.p.p.p.p.i.i.i.i.i.i.i.i.i.i.i.p.p.p.p.p.p.p.p.i.i.i.i.i.i.i.i.i.p.p.t.A x X bXbXbXbXbXbXbXbX",
"  k F m.B.v.l.9.x ; : ,.,.,.,.<.A A A A A A A M M M M M M M M M M A A A A A A A A M M M M M M M M M M A A n ; X bXbXbXbXbXbXbXbX",
"  k F m.N.v.k.9.x < < ; ; ; ; k k k k k k k k k k k k k k k k k k k k k k k k k k k k k k k k k k k k k k f < X bXbXbXbXbXbXbXbX",
"  k F m.M.g.w.N ; < r w w w w w w w w p , , 2.5.6.8.8.8.8.8.8.8.5.2., , p p , , 2.5.6.8.8.8.8.8.8.8.5.2., , p ( 5 bXbXbXbXbXbXbX",
"  k F m.m.e.n : ; 7 ^ U I Y Y Y Y Y Y U ~ ~ 4.hXxXxXxXxXxXxXxXxXjX7.~ ~ U U ~ ~ 4.hXxXxXxXxXxXxXxXxXjX7.~ ~ U K ( . bXbXbXbXbXbX",
"= = D b.d.C f < 7 w Y A.D.Z.Z.Z.Z.Z.Z.C.P  .5XkXcXvXvXvXvXvXvXvXzX8X| P E E P  .6XlXcXvXvXvXvXvXvXvXzX7X .P E R ) 4 & bXbXbXbXbX",
"> * m D S x < , ^ L ! T.R.R.R.R.R.R.R.Y.C.X.2X9XkXkXkXkXkXkXkXkXgX4XX.E G.Y.C.X.2X0XkXkXkXkXkXkXkXkXgX3XX.C.H.&X[ 7 # bXbXbXbXbX",
"bXbXj z k ; 7 / Y S.T._.|.`.`.`.`.`.`.~.Y.C.o.O.3.3.3.3.3.3.3.3.O.o.C.F.Q.~.Y.C.o.O.3.3.3.3.3.3.3.3.O.o.C.H.Q.-X[ 8 O bXbXbXbXbX",
"bXbXbX& @ - 7 ) ! U.^..X+X+X+X+X+X+X+X].Q.Y.S.X.P | P P P P P P Q A.F.W.|.].Q.G.S.Q P | P P P P P P Q A.F.Q.|.;X#.8 o bXbXbXbXbX",
"bXbXbXbX> $ 8 [ K.^. XXX+X+X+X+X+X+X+XXX|.^.W.P.L.K.L.L.L.L.K.L.P.W.~.`.OX@X|.^.W.P.L.K.L.L.L.L.K.L.P.E.Q.|.OX;X#.8 o bXbXbXbXbX",
"bXbXbXbXbX# 8 #.-XOX@XXXXXXXXXXXXXXXXX.X}.{.'.'.'.'.'.'.'.'.'.'.'.'.'.{.{.{.{.{.'.'.'.'.'.'.'.'.'.'.{.}..X@X@X;X#.8 o bXbXbXbXbX",
"bXbXbXbXbX& 8 #.;X#X#XXXXXXXXXXXXX+X+X}.!.L.&X*X*X*X*X*X*X*X*X*X*X*X*X&X&X&X&X*X*X*X*X*X*X*X*X*X*X*XP.'.oX%X#X;X#.8 o bXbXbXbXbX",
"bXbXbXbXbXo 8 #.;X@X#XXXXXXXXXXXXX+X@X'.*X.. .| | | | | | | | | | | | | | | | | | | | | | | | | | | X.P..X%X#X;X#.8 o bXbXbXbXbX",
"bXbXbXbXbXo 8 #.;X@X$X+X+XoXoXoXXX.X`.!.&X.. .| | | | | | | | | | | | | | | | | | | | | | | | |  .| X.L.~. XOX;X#.8 o bXbXbXbXbX",
"bXbXbXbXbXo 8 #.:X%X%X$X#X@X+X+XXX_.E.Y.J.&X&X&X&X&X&X&X&X&X&X&X*X*X*X*X*X*X*X*X*X*X&X&X&X&X&X&X&X&X*XJ.Y.Q.|.;X#.8 o bXbXbXbXbX",
"bXbXbXbXbXo 8 #.=X}..X[.}..X.XoX.X~.G.F.T.'.}.}.}.}.}.}.}.{.{.{.'.'.'.'.'.'.'.'.'.'.{.{.{.}.}.}.}.}.~.Y.F.U.`.;X#.8 o bXbXbXbXbX",
"bXbXbXbXbXo d s %.;.;.-.:.!.^.|..X_.E.T.Q..X#X#X@X@X@X@X#X@X].^.Q.Q.Q.Q.Q.Q.Q.Q.Q.Q.~.`.OX#X#X@X#X@X].W.T.Q. X;X#.8 o bXbXbXbXbX",
"bXbXbXbXbX& d 0 i i i s ] ! I.^..X.X_._.`.XX+X+X+X+X+X+X@X.X~.Y.F.F.F.F.F.F.F.F.F.F.G.Q.].+X+X+X+X+X.X`._. X@X;X#.8 o bXbXbXbXbX",
"bXbXbXbXbX2 6 r u u u i ) Y W P.~.].XXXXXXXXXXXXXXXXXXoX+X].Q.G.D.D.D.D.D.D.D.D.D.D.F.W.}.+X+XXXoXoXXX].`.'./.:.{ q 2 bXbXbXbXbX",
"bXbXbXbXy ( ] L %.&.&.%.{ ) J R J.Q.|.+X+XXXXXXXXXXXXXoXoX.X_.W.E.E.E.E.E.E.E.E.E.E.W.~.].+X+X+X+X+X].^.E.! &.{ ] ] ( y bXbXbXbX",
"bXbXbX% q L W J.!.).[.:X*.s w L S.U._.XX+XXXXXXXXXXXXXXXXXXX.X].}.}.}.}.}.}.}.}.}.}.]..XXXXXXX.XXX.X_.T.S.U / w L R U q % bXbXbX",
"bXbXbX= p U Z.R.|.$X%X.X:.$.' T J.R._.XX+XXXXXXXXXXXXXXXXXXXoX+X+X+X+X+X+X+X+X+X+X+X+X+XXX]._.^.^.^.P.! Y G / ^ I E Y p = bXbXbX",
"bXbXbX@ p U Z.R.`.#X$XXX/.=X:.-X~._.].XXoXXXXXXXXXXXXXXXXXXXoXoX+X+XoXoXoXoXoXoX+X+XoX+XXX_.R.H.I.H.! ] / ^ L P E C.Y p @ bXbXbX",
"bXbXbX@ p U Z.U.`.+X+XXX.X.X.X.XXXXXXXXXXXXXXXXXXXXXXXXXXXXXXXXXXXXXXXXXXXXXXXXXXXXXXX+XXX~.J.W W W I ^ p ) R Z.V.C.U p @ bXbXbX",
"bXbXbX= p U Z.R.`.+X+X+X@X#X#X#X+X+XoXXXXXXXXXXXXX.X.X.X.X.X.X.X.X.X.X.X.X.X.X.X.X.X.X@X.X-XT G G G G G G Y E V.V.Z.Y p = bXbXbX",
"bXbXbX@ p U Z.U._.oX+XXXXXXXXXXXXXXXXXXXXXXXXXXXXXXXXXXXXXXXXXXXXXXXXXXXXXXXXXXXXXXX+X#X.X=X[ r 7 7 w L Q C.C.Z.V.C.U p @ bXbXbX",
"bXbXbX& t H I S.W.^.^._.`.OX@X@X@X@X@X@X+XXXXX.XoX$X<XqXqXwXwXwXwXwXwXwXwXwXwXwXqXqXwX<XoX-X%.s 0 < r U Z.V.V.C.W I H t & bXbXbX",
"bXbXbXbX> t ^ T S.I.I.I.Q.|.#X$X#X#X#X#X@XXX.X.X@XwXtXyXyXyXyXyXyXyXyXyXyXyXyXyXyXyXtXeX@X(.-X;.' 0 r U Z.V.V.W L ^ t > bXbXbXbX",
"bXbXbXbXbX+ 9 ) R E E A.J.!.(.).(.(.(.).[..X+X@X<XrXiXaXaXpXpXpXpXpXpXpXpXpXpXpXpXaXiXtX<X#X@X/.&.u r J W C.E I ) 9 + bXbXbXbXbX",
"bXbXbXbXbXbX* e H J J J L &.=.=.&.&.&.*.=X[.<XqXrXyXpXdXdXdXdXdXdXdXdXdXdXdXdXdXdXdXpXuXrXeXqX[.*.i 7 / J L J H e * bXbXbXbXbXbX",
"bXbXbXbXbXbXbX> 9 r r r r u u u u u u s *.(.qXyXiXpXpXaXsXaXaXaXaXaXaXaXaXaXaXaXaXsXaXpXiXyXqX).&.u < 7 r r r 9 > bXbXbXbXbXbXbX",
"bXbXbXbXbXbXbXbX& $ $ $ @ - < 7 r r u ` *.(.qXuXaXdXaXaXaXaXaXaXaXaXaXaXaXaXaXaXaXaXaXdXaXuXeX).&.u - @ $ $ $ & bXbXbXbXbXbXbXbX",
"bXbXbXbXbXbXbXbXbXbXbXbX+ @ 7 w J T &.-.-X[.qXyXaXdXaXaXaXaXaXaXaXaXaXaXaXaXaXaXaXaXaXdXsXuXeX).&.u @ + bXbXbXbXbXbXbXbXbXbXbXbX",
"bXbXbXbXbXbXbXbXbXbXbXbXbX$ r G W G.!.[.}.XXqXyXpXdXaXaXaXaXaXaXaXaXaXaXaXaXaXaXaXaXaXsXaXuXeX).&.u $ bXbXbXbXbXbXbXbXbXbXbXbXbX",
"bXbXbXbXbXbXbXbXbXbXbXbXbX% r J C.U.|.#X@X+XwXyXaXdXsXdXdXdXdXdXsXaXaXaXaXaXaXaXaXaXaXsXaXuXeX).&.u % bXbXbXbXbXbXbXbXbXbXbXbXbX",
"bXbXbXbXbXbXbXbXbXbXbXbXbX% r J E I.^.OXoX+XqXyXaXdXsXsXdXdXdXsXsXaXaXaXaXaXaXaXaXaXaXsXaXuXeX).&.u % bXbXbXbXbXbXbXbXbXbXbXbXbX",
"bXbXbXbXbXbXbXbXbXbXbXbXbX$ r J E I.^.XXoX+XwXtXuXiXuXyXtXeXtXuXiXpXsXsXsXsXsXaXaXaXaXdXaXuXeX).&.u % bXbXbXbXbXbXbXbXbXbXbXbXbX",
"bXbXbXbXbXbXbXbXbXbXbXbXbX$ r J C.I._.+X+X+X<XqXeXrXeX1X>X;.>X1XyXpXdXfXfXfXdXdXsXaXaXdXsXuXeX).&.u % bXbXbXbXbXbXbXbXbXbXbXbXbX",
"bXbXbXbXbXbXbXbXbXbXbXbXbX1 6 J W G.~..XXX.XXX@X#X%X#X-X#.i #.-X<XtXuXiXiXiXiXpXpXaXaXsXpXuXeX).&.i $ bXbXbXbXbXbXbXbXbXbXbXbXbX",
"bXbXbXbXbXbXbXbXbXbXbXbXbX> 2 _ L R P.Q.^.Q.~.{..X@X.X:.` 3 i %.>.>X,X,X,X,XwXyXiXsXsXiXyXrXqX[.-.G ( 5 bXbXbXbXbXbXbXbXbXbXbXbX",
"bXbXbXbXbXbXbXbXbXbXbXbXbXbXbXy q J ! F.H.G.T.~..X#XXX=X' 3 3 i s } } } } $.:.1XyXpXpXyXqX<X$X}.P.R K ( 2 bXbXbXbXbXbXbXbXbXbXbX",
"bXbXbXbXbXbXbXbXbXbXbXbXbXbXbXbXg q K W E Z.G.~.XX$XoX=X' 3 - = @ @ @ @ @ 9 +.-XoXwXeXwX#XXXoX].Q.G.R ^ 4 + bXbXbXbXbXbXbXbXbXbX",
"bXbXbXbXbXbXbXbXbXbXbXbXbXbXbXbXbXy ( J I E G.Q.XX$XoX=X' 8 $ * bXbXbXbXbXj e +.%.=.>.>X[.XX+X.X|.Q.! ` d & bXbXbXbXbXbXbXbXbXbX",
"bXbXbXbXbXbXbXbXbXbXbXbXbXbXbXbXbXbX1 p J W H.^.XX$XoX=X' 4 & bXbXbXbXbXbXbX5 9 0 0 s *./.@X@XXX@X].:.' 4 + bXbXbXbXbXbXbXbXbXbX",
"bXbXbXbXbXbXbXbXbXbXbXbXbXbXbXbXbXbX2 7 G W H.^.XX$XoX=X' 4 * bXbXbXbXbXbXbX> =     7 $.:X#X@XXX$X@X=X' 4 + bXbXbXbXbXbXbXbXbXbX"
};
