/* XPM */
static char *result[] = {
/* columns rows colors chars-per-pixel */
"64 64 47 1 ",
"  c #72A11D",
". c #B96E54",
"X c #221F30",
"o c #B86D53",
"O c #B1674E",
"+ c #B66B51",
"@ c #B3694F",
"# c #B0664D",
"$ c #AE574B",
"% c #6F363C",
"& c #96C235",
"* c #748B3C",
"= c #B66951",
"- c #BB7055",
"; c #75A31D",
": c #449314",
"> c #689E1B",
", c #B76C52",
"< c #CC9167",
"1 c #338911",
"2 c #22601B",
"3 c #8C6F57",
"4 c #A24B47",
"5 c #B3614F",
"6 c #904343",
"7 c #1F4324",
"8 c #4C2937",
"9 c #BF795A",
"0 c #A55148",
"q c #602E3C",
"w c #7BA629",
"e c #5E981A",
"r c #312432",
"t c #327B1A",
"y c #C3835F",
"u c #559817",
"i c #81AF28",
"p c #235222",
"a c #2E3A2A",
"s c #232D2C",
"d c #7F5046",
"f c #865D4D",
"g c #563C37",
"h c #364B27",
"j c #506E25",
"k c #8EBA30",
"l c #C2E463",
/* pixels */
"XXXXXXXXXXXXXXXXXXXXXXXXXXXXXXXXXXXXXXXXXXXXXXXXXXXXXXXXXXXXXXXX",
"Xhj**********************************************************w3X",
"Xji&&&&&&&&&&&&&&&&&&&&&&&&&&&&&&&&&&&&&&&&&&&&&&&&&&&&&&&&&&lwX",
"X2: w;                ;w                                  ;w;&*X",
"X2:w&i                i&w                                 i&w&*X",
"X2:;iw                wi;                                 wi;&*X",
"X2:                                ;iw                       &*X",
"X2:                                w&i        ;w             &*X",
"X2:                                 w;        i&w            &*X",
"X2:   ik;  ;                    ;             wi;    ;;      &*X",
"X2:   ik; >e ;;;                e>     ;;  ;         ee ;;   &*X",
"X2:      ;u1> >>     >>       ;>1u;    >>  >         :: >>>  &*X",
"X2:      ;u1>:11>;   ::       ;>1u;  ;e11ee1>;       ::>11:  &*X",
"X2:     ;;:t>:11>;  ;::      ;;et:;  ;u11eu1>;;      tt>11:  &*X",
"X2:     u>tp:u:: ;; ett      e>ept>;;;e::u12>>e      22u::u ;k*X",
"X2:   ;>1ujs2:>>>>>etah>     ::esp1>>>>>>1pse::     >hate>>>>ejX",
"X7t     >:2Xs211111taX71>    >utsXp111111pXstu>    >17Xat1111prX",
"Xsp::::::2a%%a777777%%gp1:::::t7%%g777777g%%7t:::::1pg%%77777ggX",
"Xra222222a%$$%88888q0$68p22222hq0$68888886$0qh22222p86$0q8888#fX",
"Xq%rrrrrr%$..$444440=-568rrrrrq0=-54444445-=0qrrrrr865-=04444y3X",
"X%4666666$o..+======o.o#6666660=..,======,..=0666666Oo.o=====<3X",
"X%0555555=-..--........o555555=-...-.........=555555o-..--..-<3X",
"X%$---.,,+++++,..........--.o,,+++++..........---o,,+++++o...<3X",
"X%$.oo+OOOOOOO@oo........oo,@OOOOOO@,oo........oo@OOOOOOO+oo.<3X",
"X%$o@O@ooooooo+OO+.......@O@,oooooo,@O@.......+OO+ooooooo@O@o<3X",
"Xq4@++,.......o++@@@@@@@@=++........++=@@@@@@@@++o.......,+=@9fX",
"Xq4@.............+@@@@@@@,............,@@@@@@@+............o@9fX",
"X%$..........................................................<3X",
"X%$..........................................................<3X",
"X%$...,@@@@@@@+.............@@@@@@@@.............+@@@@@@@,...<3X",
"X%$.,+@#######O++o.......,+=########=+,.......o++O#######@++.<3X",
"X%$,O##OOOOOOOO##=ooooooo@##OOOOOOOO##@ooooooo=##OOOOOOOO##O,<3X",
"Xq4O##@ooooooo=##OOOOOOOO##O,oooooo,O##OOOOOOOO##=ooooooo@##O-dX",
"Xq6#++,.......o++O#######@++........++@#######O++o.......,+=#odX",
"Xq4@.............+@@@@@@@,............,@@@@@@@+............o@9fX",
"X%$..........................................................<3X",
"X%$..........................................................<3X",
"X%$..........................................................<3X",
"X%$..........................................................<3X",
"X%$..........................................................<3X",
"X%$..........................................................<3X",
"X%$..........................................................<3X",
"X%$..........................................................<3X",
"X%$....oooooooo.............oooooooo.............oooooooo....<3X",
"X%$...+OOOOOOO@............o@OOOOOO@o............@OOOOOOO+...<3X",
"X%$o@@@++++++++@@,.......+@@++++++++@@+.......oO$0$=+++++@@@.<3X",
"Xq0=@@+......-O$O=+++++++@@@........@@@+++++++#$$0#9-....+@@+yfX",
"Xq4@o.........5$==OOOOOOO+............+OOOOOOO$4=oy<9o.....o@-dX",
"X%$o.........o9<-,ooooooo..............oooooo.54=.y<9o......o<3X",
"X%$..........--y-.............................=Oy<y9-........<3X",
"X%$...o+++++++,o............++++++++...........-y<y=+++++o...<3X",
"X%$.oo=#######@oo........oo,O######O,oo.........o@#######=oo.<3X",
"X%$o@OO########OO+.......@OO########OO@.......+OO########OO@o<3X",
"Xq4@##OO00$,++@##O@@@@@@@O##=++++++=##O@@@@@@@O##@+++++++O##@9fX",
"Xq6#@@-9$0$5,-,@@O#######O@@........@@O#######O@@,......-+@@#odX",
"Xq4@o,y<-.54=....@OOOOOOO+............+OOOOOOO@........o=,.o@-dX",
"X%$o.,y<9.54=....oooooooo..............oooooooo........=05-.o<3X",
"X%$..o-y<<95,..........................................-99o..<3X",
"X%$...,-y<y-..........................................o-<9o..<3X",
"X%$....--...............................................o....<3X",
"X%$..........................................................<3X",
"Xq4$$$$$$$$$$$$$$$$$$$$$$$$$$$$$$$$$$$$$$$$$$$$$$$$$$$$$$$$$$9fX",
"X8q%%%%%%%%%%%%%%%%%%%%%%%%%%%%%%%%%%%%%%%%%%%%%%%%%%%%%%%%%%dgX",
"XXXXXXXXXXXXXXXXXXXXXXXXXXXXXXXXXXXXXXXXXXXXXXXXXXXXXXXXXXXXXXXX"
};
