/* XPM */
static char *a4b557acfaf74838b040549652add043vogLairOT7PdAkWE[] = {
/* columns rows colors chars-per-pixel */
"64 64 8 1 ",
"  c None",
". c #3B2644",
"X c #262B44",
"o c #262B44",
"O c #F6DF75",
"+ c #A28426",
"@ c #FF9800",
"# c white",
/* pixels */
"                                                                ",
"                                                                ",
"                                                                ",
"                                                                ",
"                                                                ",
"                                                                ",
"                                                                ",
"                                                                ",
"                            oooooooo....                        ",
"                            oooooooo....                        ",
"                            oooooooo....                        ",
"                            oooooooo....                        ",
"                        ooooOOOOOOOOoooo....                    ",
"                        ooooOOOOOOOOoooo....                    ",
"                        ooooOOOOOOOOoooo....                    ",
"                        ooooOOOOOOOOoooo....                    ",
"                    ooooOOOO++++@@@@++++oooo....                ",
"                    ooooOOOO++++@@@@++++oooo....                ",
"                    ooooOOOO++++@@@@++++oooo....                ",
"                    ooooOOOO++++@@@@++++oooo....                ",
"                ooooOOOO@@@@OOOOOOOO@@@@++++oooo....            ",
"                ooooOOOO@@@@OOOOOOOO@@@@++++oooo....            ",
"                ooooOOOO@@@@OOOOOOOO@@@@++++oooo....            ",
"                ooooOOOO@@@@OOOOOOOO@@@@++++oooo....            ",
"                ooooOOOO++++OOOO++++OOOO++++oooo....            ",
"                ooooOOOO++++OOOO++++OOOO++++oooo....            ",
"                ooooOOOO++++OOOO++++OOOO++++oooo....            ",
"                ooooOOOO++++OOOO++++OOOO++++oooo....            ",
"                ooooOOOO++++OOOO++++OOOO++++oooo....            ",
"                ooooOOOO++++OOOO++++OOOO++++oooo....            ",
"                ooooOOOO++++OOOO++++OOOO++++oooo....            ",
"                ooooOOOO++++OOOO++++OOOO++++oooo....            ",
"                ooooOOOO++++OOOO++++@@@@++++oooo....            ",
"                ooooOOOO++++OOOO++++@@@@++++oooo....            ",
"                ooooOOOO++++OOOO++++@@@@++++oooo....            ",
"                ooooOOOO++++OOOO++++@@@@++++oooo....            ",
"                ooooOOOO@@@@OOOO++++OOOO++++oooo....            ",
"                ooooOOOO@@@@OOOO++++OOOO++++oooo....            ",
"                ooooOOOO@@@@OOOO++++OOOO++++oooo....            ",
"                ooooOOOO@@@@OOOO++++OOOO++++oooo....            ",
"                ooooOOOO@@@@++++++++@@@@++++oooo....            ",
"                ooooOOOO@@@@++++++++@@@@++++oooo....            ",
"                ooooOOOO@@@@++++++++@@@@++++oooo....            ",
"                ooooOOOO@@@@++++++++@@@@++++oooo....            ",
"                ....ooooOOOO@@@@OOOO++++oooo........            ",
"                ....ooooOOOO@@@@OOOO++++oooo........            ",
"                ....ooooOOOO@@@@OOOO++++oooo........            ",
"                ....ooooOOOO@@@@OOOO++++oooo........            ",
"                ........oooo++++++++oooo............            ",
"                ........oooo++++++++oooo............            ",
"                ........oooo++++++++oooo............            ",
"                ........oooo++++++++oooo............            ",
"                    ........oooooooo............                ",
"                    ........oooooooo............                ",
"                    ........oooooooo............                ",
"                    ........oooooooo............                ",
"                        XXXXXXXXXXXXXXXXXXXX                    ",
"                        XXXXXXXXXXXXXXXXXXXX                    ",
"                        XXXXXXXXXXXXXXXXXXXX                    ",
"                        XXXXXXXXXXXXXXXXXXXX                    ",
"                                                                ",
"                                                                ",
"                                                                ",
"                                                                "
};
